<svg width="90" height="131" viewBox="0 0 90 131" fill="none" xmlns="http://www.w3.org/2000/svg">
<path d="M56.2173 16.2723C53.8635 10.1556 45.483 9.82577 47.507 0.935565C47.6569 0.275921 46.9523 -0.233804 46.3826 0.11101C40.9405 3.31928 37.0276 9.75081 40.3108 18.1763C40.5807 18.8659 39.7711 19.5105 39.1864 19.0608C36.4729 17.0069 36.1881 14.0535 36.4279 11.9396C36.5179 11.1601 35.4984 10.7853 35.0637 11.4299C34.0442 12.9891 33.0098 15.5077 33.0098 19.3007C33.5795 27.6961 40.6706 30.2747 43.2193 30.6046C46.8623 31.0693 50.8052 30.3947 53.6387 27.8011C56.757 24.9076 57.8964 20.2901 56.2173 16.2723ZM42.3048 23.8132C44.4636 23.2885 45.573 21.7293 45.8728 20.3501C46.3676 18.2062 44.4336 16.1074 45.7379 12.7192C46.2326 15.5227 50.6403 17.2768 50.6403 20.3351C50.7602 24.1281 46.6524 27.3813 42.3048 23.8132Z" fill="#D90429"/>
<path d="M87.5 30.7407C74.45 34.2407 59.15 35.7407 45 35.7407C30.85 35.7407 15.55 34.2407 2.5 30.7407L0 40.7407C9.3 43.2407 20 44.8907 30 45.7407V105.741H40V75.7407H50V105.741H60V45.7407C70 44.8907 80.7 43.2407 90 40.7407L87.5 30.7407ZM20 130.741H30V120.741H20V130.741ZM40 130.741H50V120.741H40V130.741ZM60 130.741H70V120.741H60V130.741Z" fill="#F2F2F2"/>
</svg>
